<svg width="124" height="20" viewBox="0 0 124 20" fill="none" xmlns="http://www.w3.org/2000/svg">
<path d="M20 7.63242L12.7344 7.14546L9.99219 0L7.24996 7.14546L0 7.63242L5.56246 12.5502L3.73434 20L9.99219 15.8856L16.25 20L14.4219 12.5502L20 7.63242Z" fill="#EEDF11"/>
<path d="M46 7.63242L38.7344 7.14546L35.9922 0L33.25 7.14546L26 7.63242L31.5625 12.5502L29.7343 20L35.9922 15.8856L42.25 20L40.4219 12.5502L46 7.63242Z" fill="#EEDF11"/>
<path d="M72 7.63242L64.7344 7.14546L61.9922 0L59.25 7.14546L52 7.63242L57.5625 12.5502L55.7343 20L61.9922 15.8856L68.25 20L66.4219 12.5502L72 7.63242Z" fill="#EEDF11"/>
<path d="M98 7.63242L90.7344 7.14546L87.9922 0L85.25 7.14546L78 7.63242L83.5625 12.5502L81.7343 20L87.9922 15.8856L94.25 20L92.4219 12.5502L98 7.63242Z" fill="#EEDF11"/>
<path d="M124 7.63242L116.734 7.14546L113.992 0L111.25 7.14546L104 7.63242L109.562 12.5502L107.734 20L113.992 15.8856L120.25 20L118.422 12.5502L124 7.63242Z" fill="#EEDF11"/>
</svg>
